HIERARCHY
ROOT Hips
{
  OFFSET 0.0 0.0 0.0
  CHANNELS 6 Xposition Yposition Zposition Zrotation Yrotation Xrotation
  JOINT LHipJoint
  {
    OFFSET 0.0 0.0 0.0
    CHANNELS 3 Zrotation Yrotation Xrotation
    JOINT LeftUpLeg
    {
      OFFSET 1.363059998 -1.794630051 0.839290023
      CHANNELS 3 Zrotation Yrotation Xrotation
      JOINT LeftLeg
      {
        OFFSET 2.448110104 -6.726130009 0.0
        CHANNELS 3 Zrotation Yrotation Xrotation
        JOINT LeftFoot
        {
          OFFSET 2.562200069 -7.039589882 0.0
          CHANNELS 3 Zrotation Yrotation Xrotation
          JOINT LeftToeBase
          {
            OFFSET 0.157639995 -0.433109999 2.322550058
            CHANNELS 3 Zrotation Yrotation Xrotation
            End Site
            {
              OFFSET 0.0 -0.0 1.189659953
            }
          }
        }
      }
    }
  }
  JOINT RHipJoint
  {
    OFFSET 0.0 0.0 0.0
    CHANNELS 3 Zrotation Yrotation Xrotation
    JOINT RightUpLeg
    {
      OFFSET -1.305520058 -1.794630051 0.839290023
      CHANNELS 3 Zrotation Yrotation Xrotation
      JOINT RightLeg
      {
        OFFSET -2.54253006 -6.985549927 0.0
        CHANNELS 3 Zrotation Yrotation Xrotation
        JOINT RightFoot
        {
          OFFSET -2.568259954 -7.056230068 0.0
          CHANNELS 3 Zrotation Yrotation Xrotation
          JOINT RightToeBase
          {
            OFFSET -0.164729998 -0.452589989 2.363149881
            CHANNELS 3 Zrotation Yrotation Xrotation
            End Site
            {
              OFFSET -0.0 -0.0 1.21081996
            }
          }
        }
      }
    }
  }
  JOINT LowerBack
  {
    OFFSET 0.0 0.0 0.0
    CHANNELS 3 Zrotation Yrotation Xrotation
    JOINT Spine
    {
      OFFSET 0.028270001 2.035589933 -0.193379998
      CHANNELS 3 Zrotation Yrotation Xrotation
      JOINT Spine1
      {
        OFFSET 0.05672 2.04885006 -0.042750001
        CHANNELS 3 Zrotation Yrotation Xrotation
        JOINT Neck
        {
          OFFSET 0.0 0.0 0.0
          CHANNELS 3 Zrotation Yrotation Xrotation
          JOINT Neck1
          {
            OFFSET -0.054170001 1.74624002 0.172020003
            CHANNELS 3 Zrotation Yrotation Xrotation
            JOINT Head
            {
              OFFSET 0.10407 1.761360049 -0.123970002
              CHANNELS 3 Zrotation Yrotation Xrotation
              End Site
              {
                OFFSET 0.0372 1.770439982 -0.062410001
              }
            }
          }
        }
        JOINT LeftShoulder
        {
          OFFSET 0.0 0.0 0.0
          CHANNELS 3 Zrotation Yrotation Xrotation
          JOINT LeftArm
          {
            OFFSET 3.362410069 1.200889945 -0.311210006
            CHANNELS 3 Zrotation Yrotation Xrotation
            JOINT LeftForeArm
            {
              OFFSET 4.982999802 -0.0 -0.0
              CHANNELS 3 Zrotation Yrotation Xrotation
              JOINT LeftHand
              {
                OFFSET 3.483560085 -0.0 -0.0
                CHANNELS 3 Zrotation Yrotation Xrotation
                JOINT LeftFingerBase
                {
                  OFFSET 0.0 0.0 0.0
                  CHANNELS 3 Zrotation Yrotation Xrotation
                  JOINT LeftHandIndex1
                  {
                    OFFSET 0.715260029 -0.0 -0.0
                    CHANNELS 3 Zrotation Yrotation Xrotation
                    End Site
                    {
                      OFFSET 0.576659977 -0.0 -0.0
                    }
                  }
                }
                JOINT LThumb
                {
                  OFFSET 0.0 0.0 0.0
                  CHANNELS 3 Zrotation Yrotation Xrotation
                  End Site
                  {
                    OFFSET 0.585470021 -0.0 0.585470021
                  }
                }
              }
            }
          }
        }
        JOINT RightShoulder
        {
          OFFSET 0.0 0.0 0.0
          CHANNELS 3 Zrotation Yrotation Xrotation
          JOINT RightArm
          {
            OFFSET -3.136600018 1.374050021 -0.404650003
            CHANNELS 3 Zrotation Yrotation Xrotation
            JOINT RightForeArm
            {
              OFFSET -5.241899967 -0.0 -0.0
              CHANNELS 3 Zrotation Yrotation Xrotation
              JOINT RightHand
              {
                OFFSET -3.444169998 -0.0 -0.0
                CHANNELS 3 Zrotation Yrotation Xrotation
                JOINT RightFingerBase
                {
                  OFFSET 0.0 0.0 0.0
                  CHANNELS 3 Zrotation Yrotation Xrotation
                  JOINT RightHandIndex1
                  {
                    OFFSET -0.622529984 -0.0 -0.0
                    CHANNELS 3 Zrotation Yrotation Xrotation
                    End Site
                    {
                      OFFSET -0.501900017 -0.0 -0.0
                    }
                  }
                }
                JOINT RThumb
                {
                  OFFSET 0.0 0.0 0.0
                  CHANNELS 3 Zrotation Yrotation Xrotation
                  End Site
                  {
                    OFFSET -0.509559989 -0.0 0.509559989
                  }
                }
              }
            }
          }
        }
      }
    }
  }
}
MOTION
Frames: 4
Frame Time: 0.0083333
0.0 30.79540062 0.0 -90.560386658 -85.666137695 125.512954712 0.0 -0.0 0.0 -17.535799026 -6.220400333 -31.266307831 3.003800392 10.701301575 31.278902054 3.833999157 -10.669500351 -35.524997711 0.0 -0.028699994 -0.078799978 0.0 -0.0 0.0 21.064302444 12.860697746 -37.065189362 -7.050199509 -15.373997688 49.063896179 -3.073800802 1.871400118 -32.748806 -0.0004 -0.133100018 0.365700096 0.748500049 0.142399937 26.748401642 0.254200041 -0.459699959 9.806100845 0.004200001 -0.546699882 -3.907500029 5.540998936 8.484397888 -2.330999851 -7.323598862 10.375899315 -20.372097015 -3.502500057 4.954599857 -5.044800282 0.0 -0.0 0.0 -74.159706116 -21.714790344 42.449012756 56.668891907 -55.354904175 -31.584598541 0.0 -0.0 34.481300354 28.267702103 -24.1828022 -12.422402382 -7.125 0.0 0.0 -0.662299812 2.966100454 0.627199948 0.0 -0.0 0.0 75.683410645 22.554893494 45.357505798 -59.367916107 56.139095306 -33.815711975 0.0 -0.0 29.308498383 -47.278896332 7.996499538 -8.56679821 7.125 -0.0 0.0 -14.336797714 -18.475498199 -9.351499557 
-0.031200409 30.780700684 -0.027200699 -85.419021606 -85.817649841 120.240150452 0.0 -0.0 0.0 -18.146699905 -3.109997749 -32.188987732 2.990200281 10.67910099 31.205095291 3.574200153 -14.529303551 -34.332195282 0.002 0.291099995 0.799799979 0.0 -0.0 0.0 21.183496475 13.013799667 -36.392501831 -6.824997902 -15.182699203 48.209300995 -3.046499968 1.245200515 -32.760894775 0.0 0.045700006 -0.125400022 0.519900143 0.130199969 26.557502747 0.608299851 -0.502099991 9.815601349 0.530800104 -0.575300038 -3.802400827 5.548001289 8.651100159 -1.806200266 -8.130500793 10.533200264 -20.422002792 -3.779900074 5.104899406 -5.08109951 0.0 -0.0 0.0 -75.461082458 -22.071306229 42.612789154 55.260906219 -54.908794403 -30.429405212 0.0 -0.0 34.637298584 27.484804153 -24.345199585 -12.104099274 -7.125 0.0 0.0 -1.162799716 2.961499929 1.101400018 0.0 -0.0 0.0 75.138397217 22.947397232 45.893199921 -59.058612823 56.05380249 -33.559005737 0.0 -0.0 27.783496857 -47.365886688 5.769401073 -6.231398582 7.125 -0.0 0.0 -14.895599365 -21.589996338 -8.660200119 
-0.062900543 30.752500534 -0.052000046 -84.020088196 -85.781700134 118.452926636 0.0 -0.0 0.0 -17.842897415 -3.667398453 -31.215394974 2.949300766 10.612401962 30.983709335 3.660500288 -13.954799652 -34.717601776 0.003999999 0.41049999 1.127799869 0.0 -0.0 0.0 21.361200333 13.319698334 -35.443500519 -6.627500534 -15.010102272 47.451210022 -3.004699469 0.648800075 -32.695198059 -0.0001 -0.066699989 0.183300003 -0.190900028 0.404900014 26.539201736 1.195000052 -0.303600043 9.919201851 1.519000053 -0.50999999 -3.675400019 5.384199142 8.731100082 -1.153299809 -8.888801575 10.56649971 -20.592302322 -4.027799129 5.203999519 -5.196599483 0.0 -0.0 0.0 -77.446525574 -22.569702148 42.846004486 53.688106537 -54.378807068 -29.14661026 0.0 -0.0 34.895301819 26.398000717 -24.65430069 -11.697999001 -7.125 0.0 0.0 -1.867699862 2.861100435 1.773100257 0.0 -0.0 0.0 74.357299805 23.087604523 46.031505585 -58.441497803 55.880096436 -33.04750061 0.0 -0.0 27.184400558 -47.559398651 4.949800491 -5.390300274 7.125 -0.0 0.0 -15.215802193 -22.722297668 -8.450900078 
-0.089300156 30.728000641 -0.079500198 -94.86190033 -85.889724731 128.730926514 0.0 -0.0 0.0 -17.659700394 -6.167501926 -29.124706268 2.898799658 10.529399872 30.708702087 3.983400583 -10.499400139 -36.252597809 0.0003 0.102300011 0.281099975 0.0 -0.0 0.0 21.027599335 14.013400078 -34.309707642 -6.462099075 -14.861696243 46.809192657 -2.965300083 0.652700007 -32.474803925 -0.006000002 -0.499500126 1.3725003 -0.231800005 0.935199976 26.98059845 0.769499958 0.317199975 9.852700233 0.903000116 -0.205700025 -3.974099874 5.626201153 8.337902069 -0.569199979 -8.722001076 10.095100403 -20.610301971 -4.039200306 4.956600189 -5.330099106 0.0 -0.0 0.0 -77.095916748 -22.556303024 44.020706177 53.367805481 -54.266712189 -28.886392593 0.0 -0.0 34.579406738 25.817798615 -25.024997711 -11.566199303 -7.125 0.0 0.0 -2.270600319 2.586999893 2.167500019 0.0 -0.0 0.0 74.716499329 22.157302856 45.146705627 -58.394393921 55.866699219 -33.008594513 0.0 -0.0 27.364500046 -47.360198975 4.663600922 -5.045901299 7.125 -0.0 0.0 -15.141899109 -23.152706146 -8.251299858 
